<svg width="116" height="38" viewBox="0 0 116 38" fill="none" xmlns="http://www.w3.org/2000/svg">
<path fill-rule="evenodd" clip-rule="evenodd" d="M20.0517 7.61878C19.9644 7.61703 19.8777 7.63316 19.7968 7.66622C19.7159 7.69927 19.6423 7.74856 19.5807 7.81114C19.519 7.87371 19.4704 7.94828 19.4378 8.03037C19.4052 8.11246 19.3893 8.20038 19.391 8.28885V22.3239C19.3893 22.4124 19.4052 22.5003 19.4378 22.5824C19.4704 22.6645 19.519 22.739 19.5807 22.8016C19.6423 22.8642 19.7159 22.9135 19.7968 22.9465C19.8777 22.9796 19.9644 22.9957 20.0517 22.994H20.3163C20.4036 22.9957 20.4903 22.9796 20.5712 22.9465C20.6521 22.9135 20.7257 22.8642 20.7874 22.8016C20.8491 22.739 20.8977 22.6645 20.9302 22.5824C20.9628 22.5003 20.9787 22.4124 20.977 22.3239V8.28885C20.9787 8.20038 20.9628 8.11246 20.9302 8.03037C20.8977 7.94828 20.8491 7.87371 20.7874 7.81114C20.7257 7.74856 20.6521 7.69927 20.5712 7.66622C20.4903 7.63316 20.4036 7.61703 20.3163 7.61878H20.0517Z" fill="#495841"/>
<path fill-rule="evenodd" clip-rule="evenodd" d="M22.3466 15.5438C22.3466 15.5438 21.8172 15.9454 22.0819 16.4824L25.9125 23.0456C25.9125 23.0456 26.3085 23.5826 26.8357 23.3141L27.1004 23.1809C27.1004 23.1809 27.6298 22.7793 27.3651 22.2424L23.5345 15.6791C23.5345 15.6791 23.1386 15.1422 22.6092 15.4107L22.3466 15.5438ZM32.6483 15.5438C32.6483 15.5438 32.1211 15.9454 32.3836 16.4824L36.2142 23.0456C36.2142 23.0456 36.6123 23.5826 37.1396 23.3141L37.4043 23.1809C37.4043 23.1809 37.9315 22.7793 37.6689 22.2424L33.8384 15.6791C33.8384 15.6791 33.4403 15.1422 32.913 15.4107L32.6483 15.5438ZM12.0428 4.55848C11.9556 4.55673 11.8689 4.57286 11.7879 4.60591C11.707 4.63897 11.6335 4.68826 11.5718 4.75083C11.5101 4.81341 11.4615 4.88798 11.4289 4.97007C11.3963 5.05216 11.3804 5.14007 11.3821 5.22855V5.63017C11.3804 5.71864 11.3963 5.80656 11.4289 5.88865C11.4615 5.97074 11.5101 6.04531 11.5718 6.10788C11.6335 6.17046 11.707 6.21975 11.7879 6.25281C11.8689 6.28586 11.9556 6.30199 12.0428 6.30024H12.3075C12.3947 6.30199 12.4814 6.28586 12.5623 6.25281C12.6433 6.21975 12.7168 6.17046 12.7785 6.10788C12.8402 6.04531 12.8888 5.97074 12.9214 5.88865C12.954 5.80656 12.9699 5.71864 12.9682 5.63017V5.22855C12.9699 5.14007 12.954 5.05216 12.9214 4.97007C12.8888 4.88798 12.8402 4.81341 12.7785 4.75083C12.7168 4.68826 12.6433 4.63897 12.5623 4.60591C12.4814 4.57286 12.3947 4.55673 12.3075 4.55848H12.0428ZM7.94752 7.90885C7.86076 7.88919 7.77098 7.88754 7.68358 7.90402C7.59618 7.9205 7.51297 7.95476 7.43897 8.00472C7.36497 8.05469 7.30171 8.11934 7.25301 8.19477C7.2043 8.2702 7.17116 8.35485 7.15558 8.44362L3.85225 22.5109C3.8332 22.599 3.83188 22.6901 3.84839 22.7788C3.8649 22.8674 3.89889 22.9518 3.94833 23.0268C3.99776 23.1018 4.06162 23.1659 4.13608 23.2153C4.21054 23.2647 4.29406 23.2983 4.38163 23.3141H4.64632C4.73308 23.3338 4.82287 23.3354 4.91027 23.3189C4.99768 23.3025 5.08088 23.2682 5.15488 23.2182C5.22888 23.1683 5.29214 23.1036 5.34084 23.0282C5.38954 22.9528 5.42269 22.8681 5.43827 22.7793L8.61454 8.71208C8.6336 8.62395 8.63491 8.53282 8.6184 8.44417C8.60189 8.35551 8.56791 8.27115 8.51847 8.19615C8.46904 8.12114 8.40517 8.05702 8.33072 8.00766C8.25626 7.95829 8.17274 7.92468 8.08516 7.90885H7.94752Z" fill="#495841"/>
<path fill-rule="evenodd" clip-rule="evenodd" d="M0.81576 7.9089C0.90252 7.88924 0.992304 7.88759 1.07971 7.90407C1.16711 7.92055 1.25032 7.9548 1.32432 8.00477C1.39832 8.05474 1.46157 8.11939 1.51028 8.19482C1.55898 8.27025 1.59212 8.3549 1.60771 8.44366L4.78398 22.5109C4.80304 22.599 4.80435 22.6902 4.78784 22.7788C4.77133 22.8675 4.73735 22.9518 4.68791 23.0269C4.63848 23.1019 4.57461 23.166 4.50015 23.2153C4.4257 23.2647 4.34217 23.2983 4.2546 23.3141H3.98568C3.89879 23.3338 3.80887 23.3355 3.72134 23.319C3.6338 23.3026 3.55045 23.2683 3.47628 23.2184C3.40211 23.1684 3.33867 23.1038 3.28975 23.0284C3.24083 22.9529 3.20745 22.8682 3.19161 22.7794L0.0153402 8.71212C-0.00371757 8.624 -0.00503257 8.53287 0.0114758 8.44422C0.0279843 8.35556 0.0619777 8.2712 0.111413 8.19619C0.160848 8.12118 0.224706 8.05707 0.299164 8.0077C0.373621 7.95834 0.457143 7.92473 0.544719 7.9089H0.81576Z" fill="#495841"/>
<path fill-rule="evenodd" clip-rule="evenodd" d="M4.11684 21.0483C4.02961 21.0465 3.94293 21.0626 3.86199 21.0957C3.78105 21.1287 3.70753 21.178 3.64584 21.2406C3.58414 21.3032 3.53554 21.3778 3.50295 21.4599C3.47036 21.5419 3.45445 21.6299 3.45618 21.7183V22.6547C3.45445 22.7432 3.47036 22.8311 3.50295 22.9132C3.53554 22.9953 3.58414 23.0699 3.64584 23.1324C3.70753 23.195 3.78105 23.2443 3.86199 23.2774C3.94293 23.3104 4.02961 23.3265 4.11684 23.3248H4.38153C4.46877 23.3265 4.55545 23.3104 4.63639 23.2774C4.71732 23.2443 4.79085 23.195 4.85255 23.1324C4.91424 23.0699 4.96284 22.9953 4.99543 22.9132C5.02802 22.8311 5.04392 22.7432 5.0422 22.6547V21.7183C5.04392 21.6299 5.02802 21.5419 4.99543 21.4599C4.96284 21.3778 4.91424 21.3032 4.85255 21.2406C4.79085 21.178 4.71732 21.1287 4.63639 21.0957C4.55545 21.0626 4.46877 21.0465 4.38153 21.0483H4.11684ZM12.0427 7.91954C11.9556 7.91749 11.8689 7.93336 11.788 7.96617C11.7071 7.99898 11.6335 8.04807 11.5718 8.11048C11.5101 8.17289 11.4614 8.24732 11.4288 8.32929C11.3962 8.41127 11.3803 8.49909 11.382 8.58747V22.1178C11.3803 22.2063 11.3962 22.2942 11.4288 22.3763C11.4614 22.4584 11.51 22.5329 11.5717 22.5955C11.6334 22.6581 11.7069 22.7074 11.7878 22.7404C11.8688 22.7735 11.9555 22.7896 12.0427 22.7879H12.3074C12.3946 22.7896 12.4813 22.7735 12.5622 22.7404C12.6432 22.7074 12.7167 22.6581 12.7784 22.5955C12.8401 22.5329 12.8887 22.4584 12.9213 22.3763C12.9539 22.2942 12.9698 22.2063 12.9681 22.1178V8.58747C12.9713 8.49868 12.9565 8.41016 12.9244 8.32747C12.8923 8.24478 12.8438 8.16972 12.7817 8.10699C12.7197 8.04426 12.6455 7.99523 12.5639 7.96297C12.4822 7.93071 12.3949 7.91592 12.3074 7.91954H12.0427ZM29.347 7.65108C29.349 6.647 29.1556 5.65238 28.7781 4.72419C28.4005 3.796 27.8461 2.95245 27.1467 2.24186C26.4473 1.53126 25.6165 0.967575 24.702 0.583068C23.7874 0.198562 22.8071 0.000789524 21.8171 0.00107391C20.8178 -0.0159247 19.8252 0.169026 18.897 0.545143C17.9689 0.921259 17.1239 1.48101 16.4113 2.19177C15.6986 2.90253 15.1327 3.75007 14.7463 4.68497C14.36 5.61987 14.161 6.62342 14.161 7.63712C14.161 8.65082 14.36 9.65438 14.7463 10.5893C15.1327 11.5242 15.6986 12.3717 16.4113 13.0825C17.1239 13.7932 17.9689 14.353 18.897 14.7291C19.8252 15.1052 20.8178 15.2902 21.8171 15.2732C22.806 15.2737 23.7852 15.0767 24.6989 14.6932C25.6125 14.3097 26.4428 13.7474 27.1421 13.0383C27.8414 12.3293 28.396 11.4874 28.7744 10.5608C29.1527 9.63422 29.3473 8.6411 29.347 7.6382M27.6636 7.6382C27.6636 10.8855 25.0188 13.7075 21.8171 13.7075C18.6155 13.7075 15.9707 11.0251 15.9707 7.6382C15.9707 4.39092 18.6155 1.56673 21.8171 1.56673C25.0188 1.70847 27.6636 4.39092 27.6636 7.6382Z" fill="#495841"/>
<path fill-rule="evenodd" clip-rule="evenodd" d="M39.7818 7.64035C39.7824 6.63735 39.5881 5.64406 39.21 4.71725C38.8319 3.79043 38.2775 2.94825 37.5785 2.23882C36.8794 1.5294 36.0494 0.966624 35.1358 0.582662C34.2222 0.1987 33.243 0.00107376 32.254 0.00107391C31.2547 -0.0159247 30.2621 0.169026 29.3339 0.545143C28.4058 0.921259 27.5608 1.48101 26.8482 2.19177C26.1356 2.90253 25.5696 3.75007 25.1832 4.68497C24.7969 5.61987 24.5979 6.62342 24.5979 7.63712C24.5979 8.65082 24.7969 9.65438 25.1832 10.5893C25.5696 11.5242 26.1356 12.3717 26.8482 13.0825C27.5608 13.7932 28.4058 14.353 29.3339 14.7291C30.2621 15.1052 31.2547 15.2902 32.254 15.2732C33.2429 15.2737 34.2221 15.0767 35.1358 14.6932C36.0495 14.3097 36.8797 13.7474 37.579 13.0383C38.2783 12.3293 38.8329 11.4874 39.2113 10.5608C39.5896 9.63422 39.7842 8.6411 39.7839 7.6382M38.0518 7.6382C38.0518 10.8597 35.4303 13.6517 32.254 13.6517C29.0778 13.6517 26.4563 10.9907 26.4563 7.6382C26.4563 4.41669 29.0799 1.62471 32.254 1.62471C35.4303 1.76646 38.0518 4.41669 38.0518 7.6382ZM48.6394 7.6382C48.5526 7.61854 48.4628 7.6169 48.3754 7.63337C48.288 7.64985 48.2048 7.68411 48.1308 7.73408C48.0568 7.78404 47.9935 7.84869 47.9448 7.92412C47.8961 7.99955 47.863 8.0842 47.8474 8.17297L41.3594 36.5781C41.3403 36.6662 41.339 36.7573 41.3555 36.846C41.372 36.9347 41.406 37.019 41.4554 37.094C41.5049 37.169 41.5687 37.2331 41.6432 37.2825C41.7176 37.3319 41.8012 37.3655 41.8887 37.3813H42.1534C42.2402 37.401 42.33 37.4026 42.4174 37.3861C42.5048 37.3697 42.588 37.3354 42.662 37.2854C42.736 37.2355 42.7992 37.1708 42.8479 37.0954C42.8966 37.02 42.9298 36.9353 42.9454 36.8465L49.4165 8.44357C49.4359 8.35558 49.4375 8.26451 49.4212 8.17587C49.405 8.08722 49.3712 8.00283 49.322 7.92777C49.2727 7.85272 49.209 7.78856 49.1346 7.73916C49.0602 7.68977 48.9767 7.65615 48.8892 7.64035L48.6394 7.6382Z" fill="#495841"/>
<path fill-rule="evenodd" clip-rule="evenodd" d="M82.8918 15.7306L82.8198 15.4406C82.8159 15.3522 82.7943 15.2656 82.7565 15.1859C82.7186 15.1062 82.6652 15.0351 82.5995 14.9769C82.5338 14.9187 82.4572 14.8746 82.3742 14.8472C82.2913 14.8199 82.2037 14.8099 82.1168 14.8178L71.0698 14.7297C70.9825 14.7337 70.897 14.7556 70.8183 14.794C70.7396 14.8324 70.6694 14.8865 70.6119 14.9531C70.5543 15.0197 70.5106 15.0974 70.4834 15.1815C70.4562 15.2657 70.4461 15.3545 70.4536 15.4428L70.5256 15.7327C70.5295 15.8212 70.5511 15.9079 70.5889 15.9877C70.6267 16.0675 70.6801 16.1388 70.7458 16.1971C70.8114 16.2555 70.888 16.2998 70.971 16.3274C71.054 16.355 71.1416 16.3653 71.2286 16.3577L82.2756 16.4436" fill="#495841"/>
<path fill-rule="evenodd" clip-rule="evenodd" d="M41.1012 7.90868C41.1881 7.889 41.278 7.88734 41.3656 7.9038C41.4531 7.92025 41.5365 7.95448 41.6106 8.00443C41.6848 8.05438 41.7482 8.11901 41.7972 8.19446C41.8461 8.2699 41.8795 8.35459 41.8953 8.44345L45.0716 22.5107C45.0906 22.5988 45.0919 22.69 45.0754 22.7786C45.0589 22.8673 45.0249 22.9516 44.9755 23.0266C44.9261 23.1016 44.8622 23.1657 44.7877 23.2151C44.7133 23.2645 44.6298 23.2981 44.5422 23.3139H44.2796C44.1927 23.3336 44.1028 23.3353 44.0153 23.3188C43.9278 23.3024 43.8444 23.2681 43.7702 23.2182C43.6961 23.1682 43.6326 23.1036 43.5837 23.0281C43.5348 22.9527 43.5014 22.868 43.4855 22.7792L40.3093 8.7119C40.2902 8.62378 40.2889 8.53265 40.3054 8.444C40.3219 8.35534 40.3559 8.27098 40.4054 8.19597C40.4548 8.12096 40.5187 8.05685 40.5931 8.00748C40.6676 7.95812 40.7511 7.92451 40.8387 7.90868H41.1012Z" fill="#495841"/>
<path fill-rule="evenodd" clip-rule="evenodd" d="M103.329 4.15043C103.33 4.06195 103.314 3.97403 103.282 3.89194C103.249 3.80985 103.201 3.73529 103.139 3.67271C103.077 3.61014 103.004 3.56084 102.923 3.52779C102.842 3.49474 102.755 3.4786 102.668 3.48035H98.3502C98.263 3.4786 98.1763 3.49474 98.0954 3.52779C98.0145 3.56084 97.9409 3.61014 97.8792 3.67271C97.8175 3.73529 97.7689 3.80985 97.7363 3.89194C97.7038 3.97403 97.6879 4.06195 97.6896 4.15043V4.41674C97.6879 4.50522 97.7038 4.59314 97.7363 4.67523C97.7689 4.75732 97.8175 4.83188 97.8792 4.89446C97.9409 4.95703 98.0145 5.00632 98.0954 5.03938C98.1763 5.07243 98.263 5.08856 98.3502 5.08681H102.668C102.755 5.08856 102.842 5.07243 102.923 5.03938C103.004 5.00632 103.077 4.95703 103.139 4.89446C103.201 4.83188 103.249 4.75732 103.282 4.67523C103.314 4.59314 103.33 4.50522 103.329 4.41674V4.15043Z" fill="#495841"/>
<path fill-rule="evenodd" clip-rule="evenodd" d="M100.455 0.404914C100.369 0.404324 100.283 0.421316 100.203 0.45489C100.123 0.488463 100.05 0.537937 99.9896 0.600392C99.9288 0.662848 99.8809 0.73702 99.8489 0.818532C99.8168 0.900044 99.8012 0.987243 99.8029 1.07499V22.1093C99.8011 22.1978 99.817 22.2857 99.8496 22.3678C99.8822 22.4499 99.9308 22.5244 99.9925 22.587C100.054 22.6496 100.128 22.6989 100.209 22.7319C100.29 22.765 100.376 22.7811 100.464 22.7794H100.728C100.815 22.7811 100.902 22.765 100.983 22.7319C101.064 22.6989 101.138 22.6496 101.199 22.587C101.261 22.5244 101.31 22.4499 101.342 22.3678C101.375 22.2857 101.391 22.1978 101.389 22.1093V1.07499C101.391 0.98651 101.375 0.898592 101.342 0.816503C101.31 0.734414 101.261 0.659844 101.199 0.597269C101.138 0.534695 101.064 0.485404 100.983 0.45235C100.902 0.419296 100.815 0.403162 100.728 0.404914H100.455Z" fill="#495841"/>
<path fill-rule="evenodd" clip-rule="evenodd" d="M95.5202 0.404914C95.4329 0.403162 95.3462 0.419296 95.2653 0.45235C95.1844 0.485404 95.1108 0.534695 95.0492 0.597269C94.9875 0.659844 94.9389 0.734414 94.9063 0.816503C94.8737 0.898592 94.8578 0.98651 94.8595 1.07499V22.1093C94.8578 22.1978 94.8737 22.2857 94.9063 22.3678C94.9389 22.4499 94.9875 22.5244 95.0492 22.587C95.1108 22.6496 95.1844 22.6989 95.2653 22.7319C95.3462 22.765 95.4329 22.7811 95.5202 22.7794H95.7806C95.8678 22.7811 95.9545 22.765 96.0355 22.7319C96.1164 22.6989 96.1899 22.6496 96.2516 22.587C96.3133 22.5244 96.3619 22.4499 96.3945 22.3678C96.4271 22.2857 96.443 22.1978 96.4413 22.1093V1.07499C96.443 0.98651 96.4271 0.898592 96.3945 0.816503C96.3619 0.734414 96.3133 0.659844 96.2516 0.597269C96.1899 0.534695 96.1164 0.485404 96.0355 0.45235C95.9545 0.419296 95.8678 0.403162 95.7806 0.404914H95.5202Z" fill="#495841"/>
<path fill-rule="evenodd" clip-rule="evenodd" d="M91.8668 7.4041C91.7797 7.40205 91.6931 7.41791 91.6121 7.45073C91.5312 7.48354 91.4577 7.53263 91.396 7.59504C91.3342 7.65744 91.2856 7.73187 91.253 7.81385C91.2204 7.89582 91.2044 7.98365 91.2062 8.07202V22.1092C91.2045 22.1977 91.2204 22.2856 91.2529 22.3677C91.2855 22.4498 91.3341 22.5244 91.3958 22.5869C91.4575 22.6495 91.5311 22.6988 91.612 22.7319C91.6929 22.7649 91.7796 22.781 91.8668 22.7793H92.1294C92.2166 22.781 92.3033 22.7649 92.3843 22.7319C92.4652 22.6988 92.5387 22.6495 92.6004 22.5869C92.6621 22.5244 92.7107 22.4498 92.7433 22.3677C92.7759 22.2856 92.7918 22.1977 92.7901 22.1092V8.07202C92.7934 7.98323 92.7785 7.89471 92.7464 7.81203C92.7144 7.72934 92.6658 7.65427 92.6037 7.59154C92.5417 7.52882 92.4675 7.47978 92.3859 7.44753C92.3043 7.41527 92.2169 7.40048 92.1294 7.4041H91.8668Z" fill="#495841"/>
<path fill-rule="evenodd" clip-rule="evenodd" d="M30.3869 7.61886C30.2993 7.61553 30.212 7.6306 30.1305 7.66312C30.049 7.69565 29.975 7.74492 29.9131 7.80785C29.8513 7.87078 29.8029 7.946 29.7711 8.0288C29.7393 8.11159 29.7247 8.20015 29.7283 8.28893V22.324C29.7263 22.4123 29.7419 22.5002 29.7743 22.5823C29.8066 22.6644 29.855 22.739 29.9166 22.8016C29.9781 22.8642 30.0515 22.9135 30.1323 22.9466C30.2131 22.9797 30.2997 22.9958 30.3869 22.994H30.6515C30.7388 22.9958 30.8255 22.9797 30.9064 22.9466C30.9873 22.9136 31.0609 22.8643 31.1226 22.8017C31.1843 22.7391 31.2328 22.6645 31.2654 22.5825C31.298 22.5004 31.3139 22.4125 31.3122 22.324V8.28893C31.3139 8.20046 31.298 8.11254 31.2654 8.03045C31.2328 7.94836 31.1843 7.87379 31.1226 7.81122C31.0609 7.74864 30.9873 7.69935 30.9064 7.6663C30.8255 7.63324 30.7388 7.61711 30.6515 7.61886H30.3869Z" fill="#495841"/>
<path d="M85.2579 9.63127C88.5189 9.77516 91.2145 12.5092 91.2145 15.8166H92.7878C92.7881 14.8136 92.5935 13.8203 92.2152 12.8936C91.8369 11.9669 91.2822 11.1249 90.583 10.4157C89.8837 9.70645 89.0535 9.14391 88.1398 8.76021C87.2261 8.37651 86.2468 8.17916 85.2579 8.17944C84.0664 8.17925 82.8919 8.46583 81.8308 9.01564C80.7698 9.56545 79.8526 10.3628 79.1545 11.3421C78.4564 12.3215 77.9974 13.4549 77.8153 14.6491C77.6332 15.8434 77.7331 17.0645 78.1068 18.2119C78.4805 19.3594 79.1174 20.4006 79.965 21.2499C80.8127 22.0991 81.847 22.7322 82.9829 23.0972C84.1187 23.4621 85.3238 23.5484 86.4989 23.349C87.6741 23.1497 88.7859 22.6703 89.7428 21.9503C89.8235 21.891 89.8918 21.816 89.9436 21.7297C89.9955 21.6434 90.0299 21.5475 90.0449 21.4476C90.0598 21.3476 90.0551 21.2457 90.0308 21.1477C90.0066 21.0496 89.9634 20.9574 89.9037 20.8765L89.891 20.8614C89.831 20.7812 89.7558 20.7138 89.6699 20.6633C89.584 20.6127 89.489 20.58 89.3905 20.567C89.2919 20.554 89.1919 20.561 89.096 20.5876C89.0002 20.6142 88.9106 20.6598 88.8323 20.7218C88.1662 21.2562 87.394 21.6379 86.5687 21.8408C86.1413 21.9442 85.7036 21.9968 85.2643 21.9976C82.0033 21.9976 79.3077 19.2657 79.3077 15.8123C79.3014 12.5091 81.997 9.63127 85.2579 9.63127Z" fill="#495841"/>
<path d="M75.9427 9.63975C79.1677 10.1487 81.5499 13.1662 81.1899 16.4543L82.7526 16.6304C82.8621 15.6336 82.7768 14.6247 82.5017 13.6614C82.2265 12.698 81.7668 11.7991 81.1489 11.0161C80.531 10.233 79.767 9.58111 78.9006 9.09768C78.0342 8.61426 77.0823 8.30876 76.0994 8.19866C75.1168 8.0881 74.1224 8.17491 73.1729 8.45414C72.2234 8.73337 71.3374 9.19955 70.5656 9.82606C69.7937 10.4526 69.151 11.2271 68.6743 12.1055C68.1976 12.984 67.8961 13.949 67.7871 14.9456C67.6781 15.9421 67.7637 16.9507 68.039 17.9138C68.3143 18.8768 68.774 19.7754 69.3917 20.5582C70.0094 21.3411 70.7731 21.9929 71.6391 22.4764C72.5052 22.9599 73.4567 23.2657 74.4393 23.3763C76.0414 23.5542 77.6576 23.2072 79.0512 22.3862C79.1373 22.3361 79.2128 22.2693 79.2733 22.1895C79.3337 22.1097 79.3781 22.0186 79.4036 21.9214C79.4292 21.8241 79.4356 21.7227 79.4224 21.623C79.4091 21.5233 79.3765 21.4272 79.3265 21.3403V21.3231C79.2756 21.2356 79.2079 21.1593 79.1275 21.0988C79.0471 21.0383 78.9555 20.9947 78.8582 20.9707C78.7609 20.9467 78.6598 20.9427 78.5609 20.9589C78.4621 20.9752 78.3674 21.0114 78.2826 21.0654C77.5618 21.5222 76.7519 21.8152 75.9088 21.9244C75.4731 21.9796 75.0325 21.9832 74.596 21.9352C71.3541 21.5701 68.974 18.5526 69.3488 15.1206C69.7088 11.8325 72.6987 9.27464 75.9427 9.63975Z" fill="#495841"/>
<path fill-rule="evenodd" clip-rule="evenodd" d="M58.0063 0.823715C57.9178 0.820274 57.8296 0.835632 57.7473 0.868802C57.665 0.901971 57.5905 0.95222 57.5285 1.01633C57.4665 1.08043 57.4183 1.15698 57.3872 1.24105C57.3561 1.32513 57.3426 1.41487 57.3477 1.50453V22.5388C57.3457 22.6272 57.3613 22.7151 57.3937 22.7972C57.4261 22.8792 57.4745 22.9538 57.536 23.0164C57.5975 23.079 57.6709 23.1284 57.7517 23.1614C57.8326 23.1945 57.9191 23.2107 58.0063 23.2089H58.271C58.3582 23.2107 58.4449 23.1945 58.5258 23.1615C58.6067 23.1284 58.6803 23.0791 58.742 23.0165C58.8037 22.954 58.8523 22.8794 58.8849 22.7973C58.9175 22.7152 58.9334 22.6273 58.9316 22.5388V1.50453C58.9334 1.41605 58.9175 1.32813 58.8849 1.24604C58.8523 1.16395 58.8037 1.08938 58.742 1.02681C58.6803 0.964235 58.6067 0.914944 58.5258 0.88189C58.4449 0.848836 58.3582 0.832702 58.271 0.834454L58.0063 0.823715Z" fill="#495841"/>
<path fill-rule="evenodd" clip-rule="evenodd" d="M67.805 22.9447L65.4757 12.5328C65.2063 11.3355 64.5448 10.266 63.5992 9.49883C62.6536 8.73166 61.4797 8.31202 60.2688 8.30835C60.0782 8.30835 59.8954 8.38499 59.7604 8.52147C59.6255 8.65794 59.5494 8.84312 59.5488 9.03641C59.5488 9.13192 59.5674 9.22649 59.6035 9.3147C59.6396 9.40292 59.6925 9.48304 59.7592 9.55047C59.8259 9.61791 59.905 9.67133 59.9921 9.70769C60.0792 9.74404 60.1725 9.76261 60.2667 9.76232C61.0996 9.76499 61.907 10.0543 62.5567 10.583C63.2064 11.1116 63.66 11.8483 63.8431 12.6724L66.2211 23.2218C66.2367 23.3106 66.2698 23.3953 66.3185 23.4708C66.3672 23.5464 66.4304 23.6111 66.5044 23.6613C66.5783 23.7114 66.6615 23.7459 66.7489 23.7626C66.8363 23.7794 66.9262 23.778 67.0131 23.7587H67.2778C67.3664 23.743 67.4509 23.7091 67.5261 23.659C67.6014 23.6089 67.6656 23.5437 67.7151 23.4675C67.7645 23.3912 67.7979 23.3054 67.8134 23.2155C67.8289 23.1256 67.826 23.0335 67.805 22.9447Z" fill="#495841"/>
<path fill-rule="evenodd" clip-rule="evenodd" d="M105.54 0.394079C105.452 0.39315 105.365 0.410257 105.284 0.444363C105.203 0.478468 105.13 0.528863 105.069 0.592503C105.008 0.656144 104.96 0.731708 104.928 0.814621C104.897 0.897534 104.882 0.986075 104.885 1.07489V22.1092C104.883 22.1977 104.899 22.2856 104.932 22.3677C104.965 22.4498 105.013 22.5243 105.075 22.5869C105.137 22.6495 105.21 22.6988 105.291 22.7318C105.372 22.7649 105.459 22.781 105.546 22.7793H105.808C105.896 22.781 105.982 22.7649 106.063 22.7318C106.144 22.6988 106.218 22.6495 106.279 22.5869C106.341 22.5243 106.39 22.4498 106.422 22.3677C106.455 22.2856 106.471 22.1977 106.469 22.1092V1.07489C106.471 0.986414 106.455 0.898496 106.422 0.816407C106.39 0.734318 106.341 0.659748 106.279 0.597173C106.218 0.534598 106.144 0.485308 106.063 0.452254C105.982 0.4192 105.896 0.403065 105.808 0.404818L105.54 0.394079Z" fill="#495841"/>
<path fill-rule="evenodd" clip-rule="evenodd" d="M115.339 22.5151L113.01 12.1031C112.741 10.9056 112.079 9.83592 111.134 9.06868C110.188 8.30144 109.014 7.88195 107.803 7.87867C107.709 7.87838 107.615 7.89695 107.528 7.93331C107.441 7.96966 107.362 8.02309 107.295 8.09052C107.229 8.15796 107.176 8.23808 107.14 8.32629C107.104 8.4145 107.085 8.50907 107.085 8.60458C107.085 8.70009 107.103 8.79471 107.139 8.88303C107.175 8.97135 107.227 9.05163 107.294 9.11927C107.36 9.1869 107.439 9.24056 107.526 9.27718C107.613 9.31379 107.707 9.33264 107.801 9.33264C108.633 9.3354 109.44 9.62481 110.09 10.1535C110.739 10.6822 111.192 11.4188 111.375 12.2427L113.753 22.7921C113.769 22.8809 113.802 22.9656 113.85 23.0412C113.899 23.1167 113.962 23.1814 114.036 23.2316C114.11 23.2817 114.193 23.3162 114.281 23.3329C114.368 23.3497 114.458 23.3483 114.545 23.329H114.81C114.898 23.3133 114.983 23.2794 115.058 23.2293C115.134 23.1793 115.198 23.1141 115.248 23.0379C115.297 22.9617 115.331 22.876 115.347 22.7861C115.362 22.6961 115.36 22.6039 115.339 22.5151Z" fill="#495841"/>
</svg>
